<svg id="Layer_1" data-name="Layer 1" xmlns="http://www.w3.org/2000/svg" viewBox="0 0 122.88 122.95"><title>nut</title><path d="M46.86,31.87c-1.21-1.39-2.4-2.77-3.57-4.16l-.15-.19c-.71-1-1.36-1.93-1.94-2.85C27.32,36.58,16.06,50,10.27,64.15c-5.2,12.69-5.95,26-.13,39.28a3,3,0,0,1-.4,3.09c-1.63,2-1.94,4-1.44,5.42a4.11,4.11,0,0,0,1,1.62,4.06,4.06,0,0,0,1.68,1,5,5,0,0,0,4.75-1.4,3,3,0,0,1,3.17-.57c13.07,5.31,26.3,5.92,39.73.89,12.94-4.86,26.15-14.94,39.68-31.07a62.8,62.8,0,0,1-6.88-4.92A138.73,138.73,0,0,1,80,66.74c-4.23-3.85-8.53-8-12.7-12.17a286,286,0,0,1-20.41-22.7ZM121.8,7a28.37,28.37,0,0,1-10.47,18.51,36,36,0,0,1-4.35,3,80.78,80.78,0,0,1,9.23,15.18c2.71,5.77,5.92,14.12,6.55,22,.49,6-.48,11.78-4.11,16.25-3.94,4.84-9.13,5.23-14.74,3.13-14.54,17.61-28.91,28.63-43.13,34-14.39,5.39-28.54,5-42.47-.29a10.63,10.63,0,0,1-8.95,1.54A10.22,10.22,0,0,1,5.2,118a10.06,10.06,0,0,1-2.63-4.06,11.13,11.13,0,0,1,1.36-9.65c-5.81-14.41-4.85-28.74.74-42.4C11,46.4,23.31,31.87,38.36,19.14a19.51,19.51,0,0,1-.9-3,11.13,11.13,0,0,1,2.15-9.82C43.78,1.24,49.93-.3,56.5.05,65.39.52,75.08,4.5,81.09,7.49A75.32,75.32,0,0,1,101.29,22c.24-.26.48-.52.71-.79a35.2,35.2,0,0,0,7.7-15,5.32,5.32,0,0,1,2.89-3.82,6.8,6.8,0,0,1,3-.73,6.93,6.93,0,0,1,3,.64,5.53,5.53,0,0,1,3.18,4,1.94,1.94,0,0,1,0,.72ZM101.45,31.3A66.84,66.84,0,0,1,90,34.86a2.1,2.1,0,0,1-1.33-4h0a44.24,44.24,0,0,0,8.15-4.83A69.41,69.41,0,0,0,78.39,12.92C72.86,10.16,64,6.5,56.19,6.09c-4.79-.26-9.17.74-11.91,4.05a5.42,5.42,0,0,0-.9,4.76,15.62,15.62,0,0,0,1.28,3.61,115.55,115.55,0,0,0,6.79,9.41Q56,33.17,60.68,38.15q6.5,7,13.63,13.89c1,.94,2.43,2.52,4.21,4.41,1.61,1.73,3.49,3.73,5.54,5.84A188.16,188.16,0,0,0,104.6,78.88l0,0c3.84,1.74,7.19,1.91,9.32-.72,2.5-3.07,3.14-7.37,2.77-12-.57-7.06-3.5-14.66-6-20a73.31,73.31,0,0,0-9.28-15Z"/></svg>